{
  "source": "C:\\Users\\Peter\\Desktop\\stuff\\MIUN\\quantitative_research\\video_compression\\videos\\BVI-HD\\BVI-HD_CDVL_videos\\ORIG\\Surfers_1920x1080_30fps.mp4",
  "output": "C:\\Users\\Peter\\Desktop\\stuff\\MIUN\\quantitative_research\\video_compression\\compressed_videos\\BVI-HD\\h264\\2\\Surfers_1920x1080_30fps_h264.mp4",
  "codec": "h264",
  "ok": "Input #0, mov,mp4,m4a,3gp,3g2,mj2, from 'C:\\Users\\Peter\\Desktop\\stuff\\MIUN\\quantitative_research\\video_compression\\videos\\BVI-HD\\BVI-HD_CDVL_videos\\ORIG\\Surfers_1920x1080_30fps.mp4':\n  Metadata:\n    major_brand     : isom\n    minor_version   : 512\n    compatible_brands: isomiso2avc1mp41\n    encoder         : Lavf54.28.101\n  Duration: 00:00:05.00, start: 0.000000, bitrate: 232762 kb/s\n  Stream #0:0[0x1](und): Video: h264 (High 4:4:4 Predictive) (avc1 / 0x31637661), yuv420p(progressive), 1920x1080, 232759 kb/s, 30 fps, 30 tbr, 30 tbn (default)\n    Metadata:\n      handler_name    : VideoHandler\n      vendor_id       : [0][0][0][0]\n[out#0/mp4 @ 000002eea066abc0] Codec AVOption b:a (set bitrate (in bits/s)) has not been used for any stream. The most likely reason is either wrong type (e.g. a video option with no video streams) or that it is a private option of some decoder which was not actually used for any stream.\nStream mapping:\n  Stream #0:0 -> #0:0 (h264 (native) -> h264 (libx264))\nPress [q] to stop, [?] for help\n[libx264 @ 000002eea06a0a40] using cpu capabilities: MMX2 SSE2Fast SSSE3 SSE4.2 AVX FMA3 BMI2 AVX2\n[libx264 @ 000002eea06a0a40] profile High, level 5.0, 4:2:0, 8-bit\n[libx264 @ 000002eea06a0a40] 264 - core 165 r3222 b35605a - H.264/MPEG-4 AVC codec - Copyleft 2003-2025 - http://www.videolan.org/x264.html - options: cabac=1 ref=5 deblock=1:0:0 analyse=0x3:0x113 me=hex subme=8 psy=1 psy_rd=1.00:0.00 mixed_ref=1 me_range=16 chroma_me=1 trellis=2 8x8dct=1 cqm=0 deadzone=21,11 fast_pskip=1 chroma_qp_offset=-2 threads=18 lookahead_threads=3 sliced_threads=0 nr=0 decimate=1 interlaced=0 bluray_compat=0 constrained_intra=0 bframes=3 b_pyramid=2 b_adapt=1 b_bias=0 direct=3 weightb=1 open_gop=0 weightp=2 keyint=250 keyint_min=25 scenecut=40 intra_refresh=0 rc_lookahead=50 rc=cbr mbtree=1 bitrate=2000 ratetol=1.0 qcomp=0.60 qpmin=0 qpmax=69 qpstep=4 vbv_maxrate=2000 vbv_bufsize=2000 nal_hrd=none filler=0 ip_ratio=1.40 aq=1:1.00\nOutput #0, mp4, to 'C:\\Users\\Peter\\Desktop\\stuff\\MIUN\\quantitative_research\\video_compression\\compressed_videos\\BVI-HD\\h264\\2\\Surfers_1920x1080_30fps_h264.mp4':\n  Metadata:\n    major_brand     : isom\n    minor_version   : 512\n    compatible_brands: isomiso2avc1mp41\n    encoder         : Lavf62.3.100\n  Stream #0:0(und): Video: h264 (avc1 / 0x31637661), yuv420p(tv, progressive), 1920x1080, q=2-31, 2000 kb/s, 30 fps, 15360 tbn (default)\n    Metadata:\n      encoder         : Lavc62.11.100 libx264\n      handler_name    : VideoHandler\n      vendor_id       : [0][0][0][0]\n    Side data:\n      cpb: bitrate max/min/avg: 2000000/0/2000000 buffer size: 2000000 vbv_delay: N/A\nframe=    0 fps=0.0 q=0.0 size=       0KiB time=N/A bitrate=N/A speed=N/A elapsed=0:00:00.50    \nframe=    0 fps=0.0 q=0.0 size=       0KiB time=N/A bitrate=N/A speed=N/A elapsed=0:00:01.02    \nframe=    0 fps=0.0 q=0.0 size=       0KiB time=N/A bitrate=N/A speed=N/A elapsed=0:00:01.59    \nframe=   13 fps=6.1 q=40.0 size=       0KiB time=00:00:00.36 bitrate=   1.0kbits/s speed=0.172x elapsed=0:00:02.12    \nframe=   28 fps= 10 q=39.0 size=       0KiB time=00:00:00.86 bitrate=   0.4kbits/s speed=0.322x elapsed=0:00:02.69    \nframe=   52 fps= 16 q=39.0 size=     256KiB time=00:00:01.43 bitrate=1463.4kbits/s speed=0.434x elapsed=0:00:03.30    \nframe=   57 fps= 15 q=39.0 size=     256KiB time=00:00:01.83 bitrate=1144.1kbits/s speed=0.467x elapsed=0:00:03.92    \nframe=   73 fps= 16 q=40.0 size=     256KiB time=00:00:02.36 bitrate= 886.3kbits/s speed=0.532x elapsed=0:00:04.44    \nframe=   98 fps= 20 q=40.0 size=     512KiB time=00:00:03.20 bitrate=1310.8kbits/s speed=0.64x elapsed=0:00:05.00    \nframe=  122 fps= 22 q=40.0 size=     768KiB time=00:00:04.00 bitrate=1573.0kbits/s speed=0.722x elapsed=0:00:05.53    \n[mp4 @ 000002eea066acc0] Starting second pass: moving the moov atom to the beginning of the file\n[out#0/mp4 @ 000002eea066abc0] video:1175KiB audio:0KiB subtitle:0KiB other streams:0KiB global headers:0KiB muxing overhead: 0.220062%\nframe=  150 fps= 25 q=-1.0 Lsize=    1177KiB time=00:00:04.93 bitrate=1954.9kbits/s speed=0.827x elapsed=0:00:05.96    \n[libx264 @ 000002eea06a0a40] frame I:2     Avg QP:35.06  size: 19604\n[libx264 @ 000002eea06a0a40] frame P:41    Avg QP:37.36  size: 14191\n[libx264 @ 000002eea06a0a40] frame B:107   Avg QP:39.22  size:  5430\n[libx264 @ 000002eea06a0a40] consecutive B-frames:  2.7%  4.0%  8.0% 85.3%\n[libx264 @ 000002eea06a0a40] mb I  I16..4: 56.5% 42.3%  1.3%\n[libx264 @ 000002eea06a0a40] mb P  I16..4:  8.1%  7.8%  0.1%  P16..4: 32.5%  3.7%  1.9%  0.0%  0.0%    skip:45.9%\n[libx264 @ 000002eea06a0a40] mb B  I16..4:  0.3%  0.4%  0.0%  B16..8: 33.6%  1.7%  0.1%  direct: 1.2%  skip:62.7%  L0:43.5% L1:53.9% BI: 2.6%\n[libx264 @ 000002eea06a0a40] 8x8 transform intra:48.0% inter:93.2%\n[libx264 @ 000002eea06a0a40] direct mvs  spatial:91.6% temporal:8.4%\n[libx264 @ 000002eea06a0a40] coded y,uvDC,uvAC intra: 25.8% 13.3% 0.1% inter: 6.7% 1.5% 0.0%\n[libx264 @ 000002eea06a0a40] i16 v,h,dc,p:  6% 71%  4% 19%\n[libx264 @ 000002eea06a0a40] i8 v,h,dc,ddl,ddr,vr,hd,vl,hu:  2% 29% 18%  2%  6%  3% 19%  3% 19%\n[libx264 @ 000002eea06a0a40] i4 v,h,dc,ddl,ddr,vr,hd,vl,hu:  2% 23%  7%  4%  9%  6% 21%  4% 24%\n[libx264 @ 000002eea06a0a40] i8c dc,h,v,p: 67% 32%  1%  0%\n[libx264 @ 000002eea06a0a40] Weighted P-Frames: Y:0.0% UV:0.0%\n[libx264 @ 000002eea06a0a40] ref P L0: 49.3%  9.7% 20.7% 10.3%  9.7%  0.2%\n[libx264 @ 000002eea06a0a40] ref B L0: 79.0% 13.7%  5.7%  1.6%\n[libx264 @ 000002eea06a0a40] ref B L1: 93.5%  6.5%\n[libx264 @ 000002eea06a0a40] kb/s:1923.33\n",
  "seconds": 6.310009717941284,
  "probe_out": {}
}